<svg width="1655" height="305" viewBox="0 0 1655 305" fill="none" xmlns="http://www.w3.org/2000/svg">
<path d="M0 61C0 27.3106 27.3106 0 61 0H244C277.689 0 305 27.3106 305 61V244C305 277.689 277.689 305 244 305H61C27.3106 305 0 277.689 0 244V61Z" fill="#008CEA"/>
<path fill-rule="evenodd" clip-rule="evenodd" d="M240.465 93.0059C250.191 93.2524 258 101.214 258 111V195C258 204.941 249.941 213 240 213H66C56.0589 213 48 204.941 48 195V111C48 101.059 56.0589 93 66 93H240L240.465 93.0059ZM66 105C62.6863 105 60 107.686 60 111V147H87C90.3137 147 93 149.686 93 153C93 156.314 90.3137 159 87 159H60V195C60 198.314 62.6863 201 66 201H180V180C180 176.686 182.686 174 186 174C189.314 174 192 176.686 192 180V201H240C243.314 201 246 198.314 246 195V159H219C215.686 159 213 156.314 213 153C213 149.686 215.686 147 219 147H246V111C246 107.79 243.479 105.168 240.309 105.008L240 105H192V153C192 156.314 189.314 159 186 159H120C116.686 159 114 156.314 114 153V126C114 122.686 116.686 120 120 120C123.314 120 126 122.686 126 126V147H180V105H66Z" fill="white"/>
<path d="M390.468 64.8755H515.894V231H489V88.6755H417.362V231H390.468V64.8755Z" fill="black"/>
<path d="M603.53 233.856C594.962 233.856 587.108 232.348 579.968 229.334C572.987 226.319 567.036 222.035 562.118 216.482C557.199 210.77 553.391 203.947 550.694 196.014C547.996 187.922 546.648 178.957 546.648 169.12C546.648 159.282 547.996 150.397 550.694 142.464C553.391 134.372 557.199 127.549 562.118 121.996C567.036 116.284 572.987 111.92 579.968 108.906C587.108 105.891 594.962 104.384 603.53 104.384C612.098 104.384 619.873 105.891 626.854 108.906C633.994 111.92 640.023 116.284 644.942 121.996C649.861 127.549 653.669 134.372 656.366 142.464C659.063 150.397 660.412 159.282 660.412 169.12C660.412 178.957 659.063 187.922 656.366 196.014C653.669 203.947 649.861 210.77 644.942 216.482C640.023 222.035 633.994 226.319 626.854 229.334C619.873 232.348 612.098 233.856 603.53 233.856ZM603.53 212.436C612.415 212.436 619.555 209.738 624.95 204.344C630.345 198.79 633.042 190.54 633.042 179.592V158.648C633.042 147.7 630.345 139.528 624.95 134.134C619.555 128.58 612.415 125.804 603.53 125.804C594.644 125.804 587.505 128.58 582.11 134.134C576.715 139.528 574.018 147.7 574.018 158.648V179.592C574.018 190.54 576.715 198.79 582.11 204.344C587.505 209.738 594.644 212.436 603.53 212.436Z" fill="black"/>
<path d="M712.697 128.422H673.189V107.24H778.147V128.422H738.639V231H712.697V128.422Z" fill="black"/>
<path d="M847.805 233.856C839.237 233.856 831.383 232.348 824.243 229.334C817.262 226.319 811.312 222.035 806.393 216.482C801.475 210.77 797.667 203.947 794.969 196.014C792.272 187.922 790.923 178.957 790.923 169.12C790.923 159.282 792.272 150.397 794.969 142.464C797.667 134.372 801.475 127.549 806.393 121.996C811.312 116.284 817.262 111.92 824.243 108.906C831.383 105.891 839.237 104.384 847.805 104.384C856.373 104.384 864.148 105.891 871.129 108.906C878.269 111.92 884.299 116.284 889.217 121.996C894.136 127.549 897.944 134.372 900.641 142.464C903.339 150.397 904.687 159.282 904.687 169.12C904.687 178.957 903.339 187.922 900.641 196.014C897.944 203.947 894.136 210.77 889.217 216.482C884.299 222.035 878.269 226.319 871.129 229.334C864.148 232.348 856.373 233.856 847.805 233.856ZM847.805 212.436C856.691 212.436 863.831 209.738 869.225 204.344C874.62 198.79 877.317 190.54 877.317 179.592V158.648C877.317 147.7 874.62 139.528 869.225 134.134C863.831 128.58 856.691 125.804 847.805 125.804C838.92 125.804 831.78 128.58 826.385 134.134C820.991 139.528 818.293 147.7 818.293 158.648V179.592C818.293 190.54 820.991 198.79 826.385 204.344C831.78 209.738 838.92 212.436 847.805 212.436Z" fill="black"/>
<path d="M916.253 209.818H932.437C934.341 207.279 936.007 204.264 937.435 200.774C938.863 197.124 940.053 192.682 941.005 187.446C941.957 182.21 942.671 176.101 943.147 169.12C943.781 161.98 944.099 153.65 944.099 144.13V107.24H1034.06V231H1008.12V128.422H969.089V145.32C969.089 156.744 968.613 166.74 967.661 175.308C966.867 183.876 965.677 191.254 964.091 197.442C962.663 203.63 960.838 208.786 958.617 212.912C956.554 216.878 954.333 220.052 951.953 222.432C948.621 225.764 944.813 228.144 940.529 229.572C936.245 231 931.088 231.714 925.059 231.714H916.253V209.818Z" fill="black"/>
<path d="M1119.97 233.856C1111.4 233.856 1103.55 232.348 1096.41 229.334C1089.43 226.319 1083.48 222.035 1078.56 216.482C1073.64 210.77 1069.83 203.947 1067.14 196.014C1064.44 187.922 1063.09 178.957 1063.09 169.12C1063.09 159.282 1064.44 150.397 1067.14 142.464C1069.83 134.372 1073.64 127.549 1078.56 121.996C1083.48 116.284 1089.43 111.92 1096.41 108.906C1103.55 105.891 1111.4 104.384 1119.97 104.384C1128.54 104.384 1136.31 105.891 1143.3 108.906C1150.44 111.92 1156.46 116.284 1161.38 121.996C1166.3 127.549 1170.11 134.372 1172.81 142.464C1175.5 150.397 1176.85 159.282 1176.85 169.12C1176.85 178.957 1175.5 187.922 1172.81 196.014C1170.11 203.947 1166.3 210.77 1161.38 216.482C1156.46 222.035 1150.44 226.319 1143.3 229.334C1136.31 232.348 1128.54 233.856 1119.97 233.856ZM1119.97 212.436C1128.86 212.436 1136 209.738 1141.39 204.344C1146.79 198.79 1149.48 190.54 1149.48 179.592V158.648C1149.48 147.7 1146.79 139.528 1141.39 134.134C1136 128.58 1128.86 125.804 1119.97 125.804C1111.09 125.804 1103.95 128.58 1098.55 134.134C1093.16 139.528 1090.46 147.7 1090.46 158.648V179.592C1090.46 190.54 1093.16 198.79 1098.55 204.344C1103.95 209.738 1111.09 212.436 1119.97 212.436Z" fill="black"/>
<path d="M1205.76 107.24H1231.7V157.22H1253.6L1274.07 122.71C1277.56 116.839 1281.05 112.793 1284.54 110.572C1288.03 108.35 1292.47 107.24 1297.87 107.24H1310.48V128.422H1296.68L1280.97 154.602C1278.59 158.727 1276.45 161.583 1274.54 163.17C1272.8 164.756 1270.42 165.946 1267.4 166.74V167.692C1270.57 168.326 1273.35 169.516 1275.73 171.262C1278.11 172.848 1280.41 175.704 1282.63 179.83L1299.29 209.818H1312.86V231H1298.1C1292.87 231 1288.35 229.81 1284.54 227.43C1280.89 225.05 1277.4 220.845 1274.07 214.816L1253.6 178.164H1231.7V231H1205.76V107.24Z" fill="black"/>
<path d="M1507.47 231H1394.66V205.296L1447.73 157.934C1456.14 150.318 1462.57 143.098 1467.01 136.276C1471.61 129.294 1473.91 121.996 1473.91 114.38V111.286C1473.91 103.194 1471.45 96.8469 1466.53 92.2455C1461.77 87.6442 1455.27 85.3435 1447.02 85.3435C1442.42 85.3435 1438.37 86.0575 1434.88 87.4855C1431.55 88.7549 1428.61 90.5795 1426.07 92.9595C1423.53 95.3395 1421.39 98.1162 1419.65 101.29C1418.06 104.463 1416.79 107.874 1415.84 111.524L1392.28 102.48C1394.02 97.2435 1396.4 92.2455 1399.42 87.4855C1402.43 82.5669 1406.24 78.2035 1410.84 74.3955C1415.44 70.5875 1420.84 67.5729 1427.02 65.3515C1433.37 63.1302 1440.75 62.0195 1449.16 62.0195C1457.57 62.0195 1465.1 63.2889 1471.77 65.8275C1478.43 68.2075 1483.99 71.6189 1488.43 76.0615C1493.03 80.3455 1496.52 85.5022 1498.9 91.5315C1501.28 97.5609 1502.47 104.146 1502.47 111.286C1502.47 117.95 1501.44 124.138 1499.38 129.85C1497.31 135.562 1494.46 140.956 1490.81 146.034C1487.16 151.111 1482.88 155.95 1477.96 160.552C1473.2 165.153 1468.12 169.834 1462.72 174.594L1423.69 208.152H1507.47V231Z" fill="black"/>
<path d="M1606.86 231V198.632H1529.75V175.546L1597.1 64.8755H1632.33V177.45H1654.94V198.632H1632.33V231H1606.86ZM1552.6 177.45H1606.86V89.3895H1605.19L1552.6 177.45Z" fill="black"/>
</svg>
